<?xml version="1.0" standalone="no"?>
<!DOCTYPE svg PUBLIC "-//W3C//DTD SVG 20010904//EN" "http://www.w3.org/TR/2001/REC-SVG-20010904/DTD/svg10.dtd">
<svg version="1.0" xmlns="http://www.w3.org/2000/svg" width="1280.000000pt" height="1108.000000pt"
    viewBox="0 0 1280.000000 1108.000000" preserveAspectRatio="xMidYMid meet">
    <metadata>
        Created by potrace 1.15, written by Peter Selinger 2001-2017
    </metadata>
    <g transform="translate(0.000000,1108.000000) scale(0.100000,-0.100000)" fill="purple" stroke="none">
        <path d="M6245 10870 l-180 -209 -438 -1 -438 0 3 -97 3 -98 321 -5 321 -5
-38 -160 c-21 -88 -96 -398 -165 -690 -69 -291 -130 -534 -134 -539 -5 -5
-181 -28 -392 -52 -211 -24 -1260 -143 -2333 -264 -1072 -121 -1984 -227
-2025 -236 -201 -44 -437 -145 -551 -236 -135 -108 -188 -198 -196 -331 -16
-256 157 -495 437 -605 30 -12 100 -33 155 -47 89 -23 163 -29 680 -60 319
-19 730 -44 913 -55 312 -19 519 -31 1335 -80 760 -45 1029 -61 1337 -80 179
-11 383 -22 453 -26 79 -4 130 -11 133 -18 5 -15 366 -4728 362 -4731 -2 -2
-66 -31 -143 -66 -293 -131 -690 -342 -915 -487 -264 -169 -476 -358 -526
-467 -58 -127 -97 -330 -75 -387 l11 -28 897 0 898 -1 220 -399 c121 -220 222
-400 225 -400 3 0 104 179 225 398 l220 397 898 3 898 2 10 28 c23 57 -17 260
-76 390 -61 134 -340 361 -710 577 -184 108 -518 279 -724 371 l-153 69 5 55
c3 30 85 1095 183 2365 97 1271 179 2313 183 2316 3 3 404 29 891 58 487 29
1027 61 1200 71 173 11 468 28 655 40 2178 130 1988 116 2100 145 193 48 312
111 421 219 196 196 230 486 79 666 -118 141 -380 274 -655 334 -41 9 -952
115 -2025 236 -1072 121 -2122 240 -2333 264 -211 24 -387 47 -391 52 -5 5
-38 135 -74 289 -37 154 -103 431 -147 615 -44 184 -89 370 -99 413 l-18 77
323 0 324 0 0 100 0 100 -437 0 -438 1 -154 209 c-84 116 -154 210 -155 210 0
-1 -82 -95 -181 -210z" />
    </g>
</svg>